PathFileType	4	(X/Y/Z)	/Users/niels/Desktop/University/Third Semester/Perception and Action/Exam/Gymnastics Motion Tracking/Code for Gym Tracking/Scripts/Analyzed Data/kraft_bad_id5_2_nmspeed_Sports2D/kraft_bad_id5_2_nmspeed_Sports2D_px_person00.trc
DataRate	CameraRate	NumFrames	NumMarkers	Units	OrigDataRate	OrigDataStartFrame	OrigNumFrames
49.54128440366972	49.54128440366972	11	22	m	49.54128440366972	40	109
Frame#	Time	Hip			RHip			RKnee			RAnkle			RBigToe			RSmallToe			RHeel			LHip			LKnee			LAnkle			LBigToe			LSmallToe			LHeel			Neck			Head			Nose			RShoulder			RElbow			RWrist			LShoulder			LElbow			LWrist		
		X1	Y1	Z1	X2	Y2	Z2	X3	Y3	Z3	X4	Y4	Z4	X5	Y5	Z5	X6	Y6	Z6	X7	Y7	Z7	X8	Y8	Z8	X9	Y9	Z9	X10	Y10	Z10	X11	Y11	Z11	X12	Y12	Z12	X13	Y13	Z13	X14	Y14	Z14	X15	Y15	Z15	X16	Y16	Z16	X17	Y17	Z17	X18	Y18	Z18	X19	Y19	Z19	X20	Y20	Z20	X21	Y21	Z21	X22	Y22	Z22
40	0.8074074074074076	0.6875195042321657	-0.5277850474802038	0.0	0.666709641844315	-0.524491009343006	0.0	0.6619240567956679	-0.6789879195189737	0.0	0.5910852979086823	-0.8187221802325187	0.0	0.6388638931574311	-0.8520056656001936	0.0	0.6209888277880785	-0.8523696150175593	0.0	0.574602261786303	-0.8333304791120426	0.0	0.7131187017565559	-0.5378089780134343	0.0	0.8013809450271024	-0.6487023177844461	0.0	0.7942925221578173	-0.7964939605139092	0.0	0.8460298059826202	-0.8172480638167311	0.0	0.8451008420950937	-0.8128884482360634	0.0	0.7816120994511729	-0.8172735991869187	0.0	0.8247338403603277	-0.4135970143100486	0.0	0.9225086602425614	-0.39817243767266775	0.0	0.891212620695866	-0.42542726666285585	0.0	0.8192463029497057	-0.4090804224771139	0.0	0.9110964236810105	-0.4418254011365241	0.0	1.002552882692921	-0.4340962299981755	0.0	0.8176793007606247	-0.41399278435467957	0.0	0.8434228290357829	-0.43365417324329203	0.0	0.8781830941913112	-0.426498560412426	0.0
41	0.8275925925925927	0.7042692066481259	-0.5267888037049457	0.0	0.6841333746145153	-0.5230520940777524	0.0	0.6614708951350222	-0.6744178740934116	0.0	0.5857037944488714	-0.8098795819822545	0.0	0.6306404989622397	-0.8466047563615405	0.0	0.6124765955254498	-0.8455232430949913	0.0	0.568411370858822	-0.8236717093091022	0.0	0.7291781634760207	-0.5391780127928418	0.0	0.8125819770253281	-0.6532724982349191	0.0	0.7983955335705283	-0.7993928998999019	0.0	0.8480786327016884	-0.8203160251430619	0.0	0.8481155096253978	-0.8161676074376142	0.0	0.7851054323047363	-0.8195861606610338	0.0	0.8522780470219337	-0.42839568785047066	0.0	0.9492096995561561	-0.4143706719246531	0.0	0.916657859269468	-0.44045964048728736	0.0	0.846413202265105	-0.4230223184551131	0.0	0.9363970903586144	-0.4628714261305342	0.0	1.0278937839096642	-0.46381826142120286	0.0	0.8471366288947285	-0.43112115025284725	0.0	0.8832010931908479	-0.45742484063141614	0.0	0.927469806256987	-0.4574989379022703	0.0
42	0.8477777777777779	0.7214295309830653	-0.5241042390245055	0.0	0.7022843861166843	-0.519884327763465	0.0	0.6606687694851076	-0.6665988202421826	0.0	0.579605707057023	-0.7957895492842166	0.0	0.6203654760071636	-0.8362793588473152	0.0	0.6018245410297303	-0.8335846127924704	0.0	0.5611242377079534	-0.8086397392114277	0.0	0.7450242241890185	-0.5387691465483094	0.0	0.8222126449975972	-0.6567434196719619	0.0	0.8004435110223848	-0.8004910213923982	0.0	0.847709243417183	-0.8218364780544031	0.0	0.8489414983123661	-0.8181173196489067	0.0	0.7863028652706808	-0.8201019851660807	0.0	0.8799360309712658	-0.44318996180863396	0.0	0.975690515991883	-0.4301256901732771	0.0	0.942018104495047	-0.455065542298249	0.0	0.87358573568633	-0.4370518142693038	0.0	0.9610450073760323	-0.48444116914829405	0.0	1.0519181227689938	-0.49449406804246143	0.0	0.8762917872778716	-0.4481513494037993	0.0	0.9218686656436719	-0.4815196678856217	0.0	0.9753447051024982	-0.4892855191413076	0.0
43	0.867962962962963	0.739038035326021	-0.5200681658257581	0.0	0.7212153576445335	-0.5153064552846802	0.0	0.6606802073972883	-0.65556589813543	0.0	0.5736463657355622	-0.7757774664971493	0.0	0.6085910421612122	-0.8199588468637432	0.0	0.5897150637136874	-0.815519758474659	0.0	0.5536181567978504	-0.7874597178439102	0.0	0.760601227685759	-0.5367080016225206	0.0	0.8301508433304873	-0.6589509325857974	0.0	0.8005501514283659	-0.7996153781406284	0.0	0.8451014899054655	-0.8216592523300934	0.0	0.8477410566170748	-0.8185559291591726	0.0	0.7853638823561296	-0.818652137150257	0.0	0.907108173909152	-0.45771777289142107	0.0	1.0015260359372464	-0.44542174023206954	0.0	0.9669009891583356	-0.469216401274187	0.0	0.9002712845207117	-0.4510766164823027	0.0	0.9844642920158944	-0.5062241338294625	0.0	1.0739893698725635	-0.5254424862796059	0.0	0.9043276920741014	-0.464586193994073	0.0	0.9574790685776927	-0.5053281228788042	0.0	1.0186603036299493	-0.5209793149069637	0.0
44	0.8881481481481482	0.7571613131308235	-0.5151096305810855	0.0	0.7409450767168497	-0.5096996009939913	0.0	0.6626074729017827	-0.6414158363025616	0.0	0.5689652774693186	-0.7494071402656245	0.0	0.5963399792989146	-0.7967406404200263	0.0	0.5773273458945696	-0.7904919503308399	0.0	0.5471471309077416	-0.759611624526158	0.0	0.7759755423132816	-0.5332816983557852	0.0	0.8363386364331201	-0.6597908956982229	0.0	0.7988343887754826	-0.7967267001965121	0.0	0.8404101768999359	-0.8197344634505185	0.0	0.844589310415203	-0.8173684770632013	0.0	0.7824803423561569	-0.8151554892421209	0.0	0.9333353411912438	-0.47183309108636823	0.0	1.0263670306328896	-0.460375355442871	0.0	0.9910244005984974	-0.4830237399574188	0.0	0.9260802280175063	-0.4650189207505248	0.0	1.0062447887690702	-0.5279596196323113	0.0	1.0936689409388836	-0.5561250040617508	0.0	0.9307192733082232	-0.4801336918071471	0.0	0.9889116398104781	-0.5283991628985851	0.0	1.0555936082808997	-0.5519605278792152	0.0
45	0.9083333333333334	0.7758578389208628	-0.5096692414123792	0.0	0.7614341850742444	-0.5034449873366121	0.0	0.6673713049786613	-0.624245629870924	0.0	0.5670157849499206	-0.7166713779755047	0.0	0.5852827535070801	-0.7660678606050839	0.0	0.5664810979799365	-0.7580639156127064	0.0	0.5434026150801222	-0.7250396488124752	0.0	0.7913227436077989	-0.52890379548785	0.0	0.8407660787419134	-0.6592295430286997	0.0	0.7954616006254929	-0.7919218036932527	0.0	0.8338227474861188	-0.8161765387326307	0.0	0.8394933394129687	-0.814589012013136	0.0	0.7779196633262713	-0.809645317855365	0.0	0.9583233745520543	-0.48551253008711776	0.0	1.0499435165167212	-0.4751984527207657	0.0	1.014165720253085	-0.4967078853895507	0.0	0.9507094025091838	-0.4788164834196698	0.0	1.0261757369382059	-0.5494025399114665	0.0	1.1107493467117868	-0.5860934312305924	0.0	0.9552899673980804	-0.49475074006522923	0.0	1.0158661857181077	-0.5504353046028672	0.0	1.0856501369808889	-0.5818399645083394	0.0
46	0.9285185185185186	0.7950580222131113	-0.5041511174719576	0.0	0.782518800529994	-0.49691734747402927	0.0	0.6756134126836649	-0.6042022025339608	0.0	0.569435686448892	-0.6781534958596735	0.0	0.5776395820541225	-0.727907605447048	0.0	0.5595352403558808	-0.7183722061899481	0.0	0.5443883346270594	-0.6843395372311804	0.0	0.8067664481139294	-0.5240196602907251	0.0	0.8434746198413194	-0.6572895610098087	0.0	0.7907106306802537	-0.7854287311083636	0.0	0.825639049863141	-0.8112770095629993	0.0	0.8324826703720247	-0.8104081106843277	0.0	0.7720991669371605	-0.8023059298767637	0.0	0.9818603618279123	-0.4987748071438133	0.0	1.0719992987061058	-0.49007005761895955	0.0	1.036046270469833	-0.510489952709236	0.0	0.9738914906375169	-0.49241816433836366	0.0	1.0441712359540807	-0.5702654076218235	0.0	1.1251827413042286	-0.6148622351462132	0.0	0.978055045630769	-0.5085108198233406	0.0	1.0385319433751172	-0.571194281094492	0.0	1.1091377728879606	-0.6102875071270994	0.0
47	0.9487037037037038	0.814570692138102	-0.49888651056232114	0.0	0.8039595647811912	-0.49047238504900964	0.0	0.687621377525392	-0.5814870842522797	0.0	0.5777034800541795	-0.6348278753602304	0.0	0.5756636462952085	-0.6826958973006011	0.0	0.5588931865742814	-0.6719797589913918	0.0	0.5520129185059272	-0.6385430132700024	0.0	0.8223022553035275	-0.5189917921353504	0.0	0.8446660395676888	-0.6540499759439893	0.0	0.785066166563694	-0.7776427268318952	0.0	0.8163534243807419	-0.8054868299624116	0.0	0.823773559447421	-0.805157185474699	0.0	0.7656777756548562	-0.7935488164348039	0.0	1.0038124649981628	-0.5116303692091697	0.0	1.0923063081255528	-0.5050471471178312	0.0	1.0563528985121187	-0.5245274427618125	0.0	0.9954657609430512	-0.5058278375556171	0.0	1.0602405776752084	-0.5902612963051714	0.0	1.1370565159061619	-0.6419482801404813	0.0	0.9990817552112133	-0.5214751242303006	0.0	1.0573232266016088	-0.590490412152132	0.0	1.1267317363078795	-0.6369654089734265	0.0
48	0.968888888888889	0.8342428083968548	-0.49411438995239904	0.0	0.8255728653326578	-0.48440761872421984	0.0	0.7032738489165298	-0.5562422687923354	0.0	0.5927022272950837	-0.5875738153189197	0.0	0.5808928413167924	-0.6310667847931003	0.0	0.5662951050397967	-0.6194362338651275	0.0	0.5675575553498566	-0.5885372718355283	0.0	0.8379346788696632	-0.5140834638367937	0.0	0.8448809366162375	-0.6497227539358791	0.0	0.7793357543447903	-0.7692494355598081	0.0	0.8067572896795278	-0.7994738016220017	0.0	0.8139875426915424	-0.7994148751061033	0.0	0.7596481001365022	-0.7841425964383996	0.0	1.0241914814376885	-0.5241064163568336	0.0	1.1107628604497182	-0.5201124885108891	0.0	1.0748721932555327	-0.538916044134861	0.0	1.0154820672540406	-0.5191314591666583	0.0	1.0745134342770173	-0.6091734158384454	0.0	1.1466200063565009	-0.6670073214878989	0.0	1.0184677315311925	-0.5336935782019196	0.0	1.0727578984781694	-0.6082783442342296	0.0	1.1392514261794267	-0.6616104990023697	0.0
49	0.9890740740740742	0.8540327284089991	-0.489992068636422	0.0	0.847261301588612	-0.47894315253234687	0.0	0.7219731017467887	-0.528511579179985	0.0	0.6143393879979892	-0.5369265401170713	0.0	0.5935328484340775	-0.5737423212656595	0.0	0.5822577972742873	-0.5610374287658244	0.0	0.5912371280633096	-0.534729649152834	0.0	0.8537848744940774	-0.5095213960206799	0.0	0.8451292559393504	-0.6447833970481321	0.0	0.7747795798517066	-0.7613897807469281	0.0	0.7980644767846207	-0.7942701586969309	0.0	0.8043553883291327	-0.7942214072500846	0.0	0.7554288985475747	-0.7753650850784574	0.0	1.0431166746948846	-0.5362543497448286	0.0	1.1274101219894495	-0.5352389689859702	0.0	1.091527625860107	-0.5536412218411475	0.0	1.034137781867122	-0.5324206650282255	0.0	1.0872067063425066	-0.6268230023003621	0.0	1.154241984557643	-0.6898307674800109	0.0	1.0363084802702618	-0.5452309958332728	0.0	1.085346646957656	-0.6246356988939006	0.0	1.1475232942649651	-0.6840507390744229	0.0
50	1.0092592592592593	0.8739299357529491	-0.4865923469331738	0.0	0.8689497854851486	-0.47423168463739634	0.0	0.7427803696129597	-0.4985533237528948	0.0	0.6415676986043712	-0.48358573446467806	0.0	0.6125175722121762	-0.5120162170768868	0.0	0.6061521186252443	-0.49731971062682084	0.0	0.6222319954807908	-0.4775686054302365	0.0	0.87000751442519	-0.505474643593751	0.0	0.8467247945970388	-0.6398418727673869	0.0	0.7728964038299915	-0.755335026636522	0.0	0.791642701685032	-0.7909751662589596	0.0	0.7964427284830761	-0.7907913078107515	0.0	0.7546368337103131	-0.7686593772849658	0.0	1.0606705343621343	-0.5480990653762805	0.0	1.1423363083957907	-0.5503638210060599	0.0	1.1063121198588335	-0.5685078389398348	0.0	1.051596491258562	-0.545669106077799	0.0	1.0985213681414376	-0.6430144654169575	0.0	1.1603044192962737	-0.7102657898323377	0.0	1.0526219579273897	-0.5561323209771453	0.0	1.0954800546850165	-0.6396484435261584	0.0	1.1522844452638148	-0.7041427530466318	0.0
